<svg height="54" width="54" xmlns="http://www.w3.org/2000/svg" viewBox="0 0 54 54" >
	<rect fill="none" x="0" y="0" width="54" height="54"></rect>
  <path fill="#40add6" stroke="white" transform="translate(6 10) scale(3)" d="M7.5,0C5.0676,0,2.2297,1.4865,2.2297,5.2703
	C2.2297,7.8378,6.2838,13.5135,7.5,15c1.0811-1.4865,5.2703-7.027,5.2703-9.7297C12.7703,1.4865,9.9324,0,7.5,0z"></path>
<path transform="translate(17 15) scale(.05)" fill="white" d="M449.037,248.233V223.51h-45.688v-6.639h31.687v-34.638h-31.687v-9h31.687v-34.637h-31.687v-7.723
	h31.687V104.21h-31.687v-1.888c0-2.485-2.015-4.5-4.5-4.5s-4.5,2.015-4.5,4.5v1.888H54.689v-1.888c0-2.485-2.015-4.5-4.5-4.5
	s-4.5,2.015-4.5,4.5v1.888H14v26.662h31.689v7.723H14v34.637h31.689v9H14v34.638h31.689v6.639H0v24.723h45.689v12.6
	c0,10.259-2.149,20.469-6.218,29.532c-4.574,10.225-6.992,21.701-6.992,33.188c0,8.347,1.25,16.59,3.713,24.498
	c0.601,1.927,2.377,3.163,4.295,3.163c0.443,0,0.895-0.066,1.34-0.205c2.373-0.739,3.697-3.262,2.958-5.635
	c-2.194-7.041-3.306-14.383-3.306-21.821c0-10.23,2.146-20.436,6.205-29.507c4.583-10.208,7.005-21.693,7.005-33.213v-12.6h339.66
	v12.6c0,11.502,2.414,22.984,6.984,33.211c4.066,9.069,6.216,19.284,6.216,29.539c0,7.458-1.109,14.789-3.295,21.788
	c-0.741,2.372,0.582,4.896,2.954,5.637c0.447,0.139,0.898,0.206,1.343,0.206c1.916,0,3.692-1.233,4.294-3.159
	c2.458-7.869,3.705-16.102,3.705-24.472c0-11.515-2.422-23.002-7.001-33.216c-4.055-9.075-6.199-19.288-6.199-29.534v-12.6H449.037z
	 M23,113.21h403.036v8.662H23V113.21z M54.689,130.873h339.66v7.723H54.689V130.873z M23,147.596h403.036v16.637H23V147.596z
	 M54.689,173.233h339.66v9H54.689V173.233z M23,191.233h403.036v16.638H23V191.233z M54.689,216.871h339.66v6.639H54.689V216.871z
	 M9,232.51h431.037v6.723H9V232.51z"/>
</svg>
