<svg width="54" height="54" xmlns="http://www.w3.org/2000/svg" xmlns:svg="http://www.w3.org/2000/svg">
 <g class="layer">
  <title>Layer 1</title>
  <path d="m28.72,6.04c-7.29,0 -15.81,4.47 -15.81,15.81c0,7.71 12.15,24.72 15.81,29.19c3.24,-4.47 15.81,-21.09 15.81,-29.19c0,-11.34 -8.52,-15.81 -15.81,-15.81z" fill="#40add6" id="svg_2" stroke="white" transform="matrix(1 0 0 1 0 0)"/>
  <rect fill="#e57f20" height="10.33" id="svg_7" stroke="#000000" stroke-dasharray="null" stroke-linecap="null" stroke-linejoin="null" stroke-width="null" transform="matrix(1 0 0 1 0 0)" width="10.99" x="28.31" y="13.69"/>
  <rect fill="#e57f20" height="10.33" id="svg_6" stroke="#000000" stroke-dasharray="null" stroke-linecap="null" stroke-linejoin="null" stroke-width="null" transform="matrix(1 0 0 1 0 0)" width="10.99" x="17.22" y="13.69"/>
  <rect fill="#e57f20" height="10.33" id="svg_8" stroke="#000000" stroke-dasharray="null" stroke-linecap="null" stroke-linejoin="null" stroke-width="null" transform="matrix(1 0 0 1 0 0)" width="10.99" x="22.59" y="24.02"/>
  <rect fill="none" height="54" id="svg_1" width="54" x="0.22" y="-3.96"/>
  <path d="m33.7,18.77m-4.09,0a4.09,3.78 0 1 0 8.18,0a4.09,3.78 0 1 0 -8.18,0z" fill="#D0431F" id="svg_3" stroke="#000000" transform="matrix(1 0 0 1 0 0)"/>
  <path d="m22.53,18.85m-3.85,0a3.85,3.78 0 1 0 7.7,0a3.85,3.78 0 1 0 -7.7,0z" fill="#D0431F" id="svg_4" stroke="#000000" transform="matrix(1 0 0 1 0 0)"/>
  <path d="m28.14,29.37m-3.97,0a3.97,3.73 0 1 0 7.94,0a3.97,3.73 0 1 0 -7.94,0z" fill="#E1D250" id="svg_5" stroke="#000000" transform="matrix(1 0 0 1 0 0)"/>
 </g>
</svg>
