<svg xmlns="http://www.w3.org/2000/svg" viewBox="0 0 54 54" height="54" width="54">
  <title>highway-rest-area.svg</title>
  <rect fill="none" x="0" y="0" width="54" height="54"></rect>
  <path fill="#40add6" stroke="white" transform="translate(6 10) scale(3)" d="M7.5,0C5.0676,0,2.2297,1.4865,2.2297,5.2703
	C2.2297,7.8378,6.2838,13.5135,7.5,15c1.0811-1.4865,5.2703-7.027,5.2703-9.7297C12.7703,1.4865,9.9324,0,7.5,0z"></path>
  <path fill="#ffffff" transform="translate(17 15) scale(1.5)" d="M13.5,13h-3V9h3a.5.5,0,0,0,.4092-.7871L11.66,5h.84a.5.5,0,0,0,.3838-.82l-2.5-3a.5155.5155,0,0,0-.7676,0l-2.5,3A.5.5,0,0,0,7.5,5h.84L6.0908,8.2129A.5.5,0,0,0,6.5,9h3v4H4V11H5.5a.5.5,0,0,0,0-1h-4a.5.5,0,0,0,0,1H3v2H1.5a.5.5,0,0,0,0,1h12a.5.5,0,0,0,0-1Z"></path>
</svg>
