<svg xmlns="http://www.w3.org/2000/svg" style="display:none;">

  <!-- =====================
       Share Icon
       ===================== -->

  <symbol role="button" id="share-icon" viewBox="0 0 24 24" fill="none" stroke="currentColor" stroke-width="2" stroke-linecap="round" stroke-linejoin="round" class="feather feather-share">
    <path d="M4 12v8a2 2 0 0 0 2 2h12a2 2 0 0 0 2-2v-8"></path>
    <polyline points="16 6 12 2 8 6"></polyline>
    <line x1="12" y1="2" x2="12" y2="15"></line>
  </symbol>

  <!-- =====================
       Copy Icon
       ===================== -->

  <symbol version="1.1" id="copy-icon" xmlns="http://www.w3.org/2000/svg" xmlns:xlink="http://www.w3.org/1999/xlink" viewBox="0 0 32 32" enable-background="new 0 0 24 24" xml:space="preserve" fill="none" stroke="currentColor">
    <g stroke-width="0"></g>
    <g stroke-linecap="round" stroke-linejoin="round"></g>
    <g>
      <path fill-rule="evenodd" clip-rule="evenodd" d="M19.5 16.5L19.5 4.5L18.75 3.75H9L8.25 4.5L8.25 7.5L5.25 7.5L4.5 8.25V20.25L5.25 21H15L15.75 20.25V17.25H18.75L19.5 16.5ZM15.75 15.75L15.75 8.25L15 7.5L9.75 7.5V5.25L18 5.25V15.75H15.75ZM6 9L14.25 9L14.25 19.5L6 19.5L6 9Z" fill="#080341"></path>
    </g>
  </symbol>

  <!-- =====================
       Google logo (color)
       ===================== -->
  <symbol role="button" id="google-logo-color" viewBox="0 0 32 32">
    <g>
      <path d="M23.75,16A7.7446,7.7446,0,0,1,8.7177,18.6259L4.2849,22.1721A13.244,13.244,0,0,0,29.25,16" fill="#00ac47"/>
      <path d="M23.75,16a7.7387,7.7387,0,0,1-3.2516,6.2987l4.3824,3.5059A13.2042,13.2042,0,0,0,29.25,16" fill="#4285f4"/>
      <path d="M8.25,16a7.698,7.698,0,0,1,.4677-2.6259L4.2849,9.8279a13.177,13.177,0,0,0,0,12.3442l4.4328-3.5462A7.698,7.698,0,0,1,8.25,16Z" fill="#ffba00"/>
      <path d="M16,8.25a7.699,7.699,0,0,1,4.558,1.4958l4.06-3.7893A13.2152,13.2152,0,0,0,4.2849,9.8279l4.4328,3.5462A7.756,7.756,0,0,1,16,8.25Z" fill="#ea4435"/>
      <path d="M29.25,15v1L27,19.5H16.5V14H28.25A1,1,0,0,1,29.25,15Z" fill="#4285f4"/>
    </g>
  </symbol>

  <!-- =====================
       Google logo (White)
       ===================== -->
 <symbol  role="button" id="google-logo" stroke="currentColor" viewBox="0 0 32 32"  xmlns="http://www.w3.org/2000/svg" fill="#000000">
     <g stroke-width="0"></g>
     <g>
       <path d="M23.75,16A7.7446,7.7446,0,0,1,8.7177,18.6259L4.2849,22.1721A13.244,13.244,0,0,0,29.25,16" fill="currentColor"></path>
       <path d="M23.75,16a7.7387,7.7387,0,0,1-3.2516,6.2987l4.3824,3.5059A13.2042,13.2042,0,0,0,29.25,16" fill="currentColor"></path>
       <path d="M8.25,16a7.698,7.698,0,0,1,.4677-2.6259L4.2849,9.8279a13.177,13.177,0,0,0,0,12.3442l4.4328-3.5462A7.698,7.698,0,0,1,8.25,16Z" fill="currentColor"></path>
       <polygon points="8.718 13.374 8.718 13.374 8.718 13.374 8.718 13.374"></polygon>
       <path d="M16,8.25a7.699,7.699,0,0,1,4.558,1.4958l4.06-3.7893A13.2152,13.2152,0,0,0,4.2849,9.8279l4.4328,3.5462A7.756,7.756,0,0,1,16,8.25Z" fill="currentColor"></path>
       <polygon fill="currentColor" points="8.718 18.626 8.718 18.626 8.718 18.626 8.718 18.626"></polygon>
       <path d="M29.25,15v1L27,19.5H16.5V14H28.25A1,1,0,0,1,29.25,15Z" fill="currentColor"></path>
   </g>
 </symbol>
  <symbol role="button" id="google-logo-wite" viewBox="0 0 32 32">
    <g>
      <path d="M23.75,16A7.7446,7.7446,0,0,1,8.7177,18.6259L4.2849,22.1721A13.244,13.244,0,0,0,29.25,16" fill="#ffffff"/>
      <path d="M23.75,16a7.7387,7.7387,0,0,1-3.2516,6.2987l4.3824,3.5059A13.2042,13.2042,0,0,0,29.25,16" fill="#ffffff"/>
      <path d="M8.25,16a7.698,7.698,0,0,1,.4677-2.6259L4.2849,9.8279a13.177,13.177,0,0,0,0,12.3442l4.4328-3.5462A7.698,7.698,0,0,1,8.25,16Z" fill="#ffffff"/>
      <path d="M16,8.25a7.699,7.699,0,0,1,4.558,1.4958l4.06-3.7893A13.2152,13.2152,0,0,0,4.2849,9.8279l4.4328,3.5462A7.756,7.756,0,0,1,16,8.25Z" fill="#ffffff"/>
      <path d="M29.25,15v1L27,19.5H16.5V14H28.25A1,1,0,0,1,29.25,15Z" fill="#ffffff"/>
    </g>
  </symbol>

  <!-- =====================
       List icon
       ===================== -->
  <symbol id="icon-list" viewBox="0 0 120 100">
    <circle cx="20" cy="20" r="8" fill="#fff"/>
    <rect x="36" y="14" width="70" height="12" rx="6" fill="#fff"/>

    <circle cx="20" cy="40" r="8" fill="#fff"/>
    <rect x="36" y="34" width="70" height="12" rx="6" fill="#fff"/>

    <circle cx="20" cy="60" r="8" fill="#fff"/>
    <rect x="36" y="54" width="70" height="12" rx="6" fill="#fff"/>

    <circle cx="20" cy="80" r="8" fill="#fff"/>
    <rect x="36" y="74" width="70" height="12" rx="6" fill="#fff"/>
  </symbol>

  <!-- =====================
       Map icon
       ===================== -->
  <symbol id="icon-map" viewBox="0 0 120 120">
    <g transform="scale(0.234375)">
      <path
        d="M384,96L256,32L128,96L0,32v384l128,64l128-64l128,64l128-64V32L384,96z
           M144,123.781l96-48v312.438l-96,48V123.781z
           M272,75.781l96,48v312.438l-96-48V75.781z
           M32,83.781l80,40v312.438l-80-40V83.781z
           M480,396.219l-80,40V123.781l80-40V396.219z"
        fill="none"
        stroke="#fff"
        stroke-width="14"
        stroke-linejoin="round"/>
    </g>
  </symbol>

  <!-- =====================
       Sheep / herd map-pin shape
       fill="currentColor" — caller sets color via CSS `color` property
       white circle punches a hole for the emoji/content overlay
       Used by: herd marker, flock loader
       ===================== -->
  <symbol id="icon-sheep-pin" viewBox="0 0 54 72">
    <path d="M27,70 C27,70 3,44 3,27 C3,13.8 13.8,3 27,3 C40.2,3 51,13.8 51,27 C51,44 27,70 27,70 Z"
          fill="currentColor"/>
    <circle cx="27" cy="25" r="18" fill="white"/>
  </symbol>

  <!-- =====================
       Sheep icon
       ===================== -->
  <symbol id="icon-sheep" viewBox="0 0 27 27">
    <g transform="scale(0.0642857)"
       fill="none"
       stroke="#fff"
       stroke-width="20"
       stroke-linejoin="round">

      <!-- paths unchanged -->
      <path d="M379.709,151.004c6.405-15.926,5.895-33.502-1.635-49.253c-7.522-15.735-21.2-27.771-38.137-33.8
      c-3.856-16.621-14.462-31.082-29.854-40.392c-11.053-6.686-23.819-10.221-36.913-10.221c-4.922,0-9.809,0.496-14.602,1.476
      C245.785,6.786,228.531,0,210.25,0h-0.501c-18.28,0-35.536,6.786-48.32,18.814c-4.792-0.98-9.68-1.476-14.6-1.476
      c-13.096,0-25.859,3.535-36.914,10.221c-15.394,9.31-25.996,23.771-29.854,40.392c-16.935,6.029-30.614,18.065-38.137,33.8
      c-7.528,15.75-8.038,33.327-1.632,49.253c-10.614,13.799-15.003,30.906-12.1,47.97c2.9,17.057,12.756,32.03,27.427,42.014
      c-0.835,17.005,5.44,33.554,17.771,46.308c12.203,12.623,29.321,20.164,47.38,20.974c3.443,5.574,7.713,10.569,12.646,14.871
      v83.583c0,7.332,5.944,13.276,13.276,13.276c7.333,0,13.276-5.944,13.276-13.276v-69.278c0.79,0.226,1.577,0.453,2.377,0.652
      c5.751,1.437,11.659,2.164,17.561,2.164c12.087,0,19.74-2.968,30.093-8.628c10.352,5.66,18.006,8.628,30.094,8.628
      c5.902,0,11.81-0.729,17.56-2.164c0.801-0.199,1.59-0.427,2.378-0.652v69.278c0,7.332,5.943,13.276,13.274,13.276
      c7.333,0,13.277-5.944,13.277-13.276v-83.583c4.933-4.301,9.203-9.297,12.645-14.871c18.061-0.81,35.179-8.352,47.384-20.974
      c12.328-12.754,18.604-29.302,17.77-46.308c14.672-9.984,24.526-24.957,27.428-42.014
      C394.709,181.911,390.321,164.804,379.709,151.004z" />
    <path d="M286.88,183.164c0.927-2.898,1.364-5.912,1.303-8.985c-0.159-7.479-3.276-14.463-8.775-19.663
      c-4.148-3.926-9.278-6.501-14.899-7.491c-4.797-9.596-14.836-15.732-25.905-15.732c-0.225,0-0.438,0.001-0.64,0.008
      c-1.926,0.04-3.835,0.264-5.69,0.669c-5.442-5.909-13.164-9.271-21.394-9.271l-0.435,0.004l-0.519-0.004
      c-8.216,0-15.934,3.363-21.382,9.271c-1.855-0.406-3.764-0.631-5.688-0.669c-11.346-0.26-21.65,5.936-26.542,15.725
      c-5.625,0.989-10.757,3.565-14.905,7.491c-5.497,5.204-8.611,12.187-8.77,19.663c-0.066,3.069,0.371,6.083,1.299,8.987
      c-11.836,5.919-22.727,16.333-29.401,28.194c-5.09,9.048-5.081,20.531,0.021,29.259c3.973,6.796,10.372,10.694,17.56,10.694
      c7.957,0,19.506-4.782,30.851-26.53c0.436,2.205,0.89,4.366,1.35,6.417c3.811,17.016,10.882,40.699,22.931,56.895
      c9.458,12.711,20.615,19.154,33.16,19.154c12.544,0,23.702-6.443,33.161-19.154c12.057-16.207,19.127-39.885,22.935-56.896
      c0.462-2.071,0.915-4.232,1.346-6.417c11.351,21.747,22.897,26.529,30.854,26.531c7.185,0,13.586-3.896,17.562-10.691
      c5.105-8.729,5.112-20.215,0.02-29.261C309.615,199.502,298.722,189.087,286.88,183.164z" />
    </g>
  </symbol>

  <!-- =====================
       Zoom map icon
       ===================== -->
  <symbol id="icon-zoom-map" viewBox="0 0 27 27">
    <g transform="scale(1.125)"
       fill="#fff"
       stroke="#fff"
       stroke-width="1"
       stroke-linecap="round"
       stroke-linejoin="round">
      <path d="M3 21V15.25h1.5v3.175l3.7 -3.7 1.075 1.075 -3.7 3.7h3.175v1.5H3Zm12.25 0v-1.5h3.175l-3.675 -3.675
             1.075 -1.075L19.5 18.425V15.25h1.5V21H15.25ZM8.175 9.25 4.5 5.575v3.175H3V3h5.75v1.5h-3.175l3.675
             3.675 -1.075 1.075Zm7.65 0 -1.075 -1.075L18.425 4.5H15.25V3H21v5.75h-1.5v-3.175l-3.675 3.675Z" />
    </g>
  </symbol>

  <!-- =====================
       Location pin (used in Open in Maps button)
       currentColor = white when used inside #open-map-btn
       ===================== -->
  <symbol id="icon-location" viewBox="0 0 24 24">
    <path d="M12 2C8.13 2 5 5.13 5 9c0 5.25 7 13 7 13s7-7.75 7-13c0-3.87-3.13-7-7-7zm0 9.5c-1.38 0-2.5-1.12-2.5-2.5s1.12-2.5 2.5-2.5 2.5 1.12 2.5 2.5-1.12 2.5-2.5 2.5z"
          fill="currentColor"/>
  </symbol>

  <!-- =====================
       Home / Reset View
       ===================== -->
  <symbol id="icon-home" viewBox="0 0 24 24" fill="none" stroke="currentColor"
          stroke-width="2" stroke-linecap="round" stroke-linejoin="round">
    <path d="m3 9 9-7 9 7v11a2 2 0 0 1-2 2H5a2 2 0 0 1-2-2z"/>
    <polyline points="9 22 9 12 15 12 15 22"/>
  </symbol>

  <!-- =====================
       Fullscreen controls
       ===================== -->
  <symbol id="icon-fullscreen-enter" viewBox="0 0 29 29">
    <path d="M24 16v5.5c0 1.75-.75 2.5-2.5 2.5H16v-1l3-1.5-4-5.5 1-1 5.5 4 1.5-3h1z
               M6 16l1.5 3 5.5-4 1 1-4 5.5 3 1.5v1H7.5C5.75 24 5 23.25 5 21.5V16h1zm7-11v1l-3 1.5
               4 5.5-1 1-5.5-4L6 13H5V7.5C5 5.75 5.75 5 7.5 5H13zm11 2.5c0-1.75-.75-2.5-2.5-2.5H16v1l3
               1.5-4 5.5 1 1 5.5-4 1.5 3h1V7.5z" />
  </symbol>

  <symbol id="icon-fullscreen-exit" viewBox="0 0 29 29">
    <path d="M18.5 16c-1.75 0-2.5.75-2.5 2.5V24h1l1.5-3 5.5 4 1-1-4-5.5 3-1.5v-1h-5.5z
               M13 18.5c0-1.75-.75-2.5-2.5-2.5H5v1l3 1.5-4 6 1 1 5.5-4 1.5 3h1V18.5z
               M17 10.5c0 1.75.75 2.5 2.5 2.5H24v-1l-3-1.5 4-6-1-1-5.5 4L17 5h-1v5.5z
               M10.5 13c1.75 0 2.5-.75 2.5-2.5V5h-1L10.5 8 5 4 4 5l4 5.5L5 12v1h5.5z" />
  </symbol>

  <symbol role="button" id="apple-logo" fill="none" stroke="currentColor" viewBox="0 0 14 14"  xmlns="http://www.w3.org/2000/svg">
      <g stroke-width="0"></g>
      <g>
        <path d="M 4.5439328,12.768635 C 4.3075707,12.610727 4.0976931,12.41734 3.9222954,12.19397 3.730907,11.962605 3.5535105,11.719247 3.3906056,11.467394 3.0078288,10.90772 2.7085034,10.295578 2.5011244,9.650454 2.2512702,8.899892 2.129841,8.181311 2.129841,7.478221 2.129841,6.693679 2.2997419,6.009078 2.6305489,5.434413 2.8754061,4.984676 3.2401933,4.608395 3.6799368,4.344049 4.104689,4.079204 4.5994004,3.934288 5.0991089,3.924294 c 0.174898,0 0.3647872,0.02499 0.5646706,0.07496 0.1449155,0.03998 0.3198135,0.104939 0.5346881,0.184893 0.2748397,0.104938 0.4247523,0.1699 0.4747231,0.184892 0.1599067,0.05997 0.294828,0.08495 0.3997668,0.08495 0.079953,0 0.1948863,-0.02498 0.322312,-0.06496 0.072458,-0.02498 0.2098776,-0.06996 0.4047639,-0.15491 0.1928875,-0.06996 0.3457983,-0.129924 0.4672274,-0.174898 0.1848922,-0.05497 0.3637878,-0.104938 0.524694,-0.129924 0.1948863,-0.02998 0.3882735,-0.03998 0.5736653,-0.02499 0.3547931,0.02499 0.6796039,0.09994 0.9694349,0.209877 0.509702,0.204881 0.920962,0.524694 1.227783,0.979429 -0.129924,0.07995 -0.249854,0.172899 -0.362288,0.27484 -0.243358,0.214874 -0.449738,0.469726 -0.614642,0.752061 -0.214874,0.384776 -0.32481,0.819522 -0.321812,1.259265 0.0075,0.541185 0.144915,1.016907 0.419755,1.429167 0.193387,0.299825 0.451737,0.556675 0.766553,0.767552 0.15491,0.104939 0.29083,0.177397 0.419755,0.224869 -0.05997,0.187391 -0.125926,0.369784 -0.202382,0.549679 -0.173399,0.403265 -0.379778,0.78954 -0.624635,1.154327 -0.215874,0.314816 -0.385775,0.549679 -0.5147,0.704589 -0.200883,0.23986 -0.39477,0.419755 -0.589656,0.54818 -0.2148749,0.142417 -0.4672277,0.217873 -0.725577,0.217873 -0.1748979,0.0075 -0.3497959,-0.01499 -0.5166986,-0.06346 C 8.551595,12.865079 8.4086783,12.81161 8.26876,12.751145 8.1223454,12.684184 7.9709337,12.627217 7.8165238,12.581244 c -0.1898893,-0.04997 -0.3847756,-0.07396 -0.5816607,-0.07346 -0.1998834,0 -0.3947697,0.02499 -0.5796619,0.07246 -0.1549096,0.04397 -0.3048222,0.09794 -0.4532356,0.162405 C 5.992088,12.830099 5.8546682,12.887565 5.7747148,12.91255 5.6128093,12.96052 5.446906,12.98951 5.2800034,13 5.020155,13 4.7782961,12.92504 4.5374366,12.775131 Z M 7.9689349,3.544016 C 7.6291331,3.713917 7.3063214,3.785875 6.98301,3.761889 6.933039,3.439077 6.98301,3.107271 7.1179313,2.743983 7.2378613,2.434163 7.397768,2.154327 7.6176398,1.904472 7.8475057,1.644624 8.1223454,1.429749 8.4321646,1.27484 8.7619723,1.104939 9.0767886,1.014991 9.3766137,1 c 0.039977,0.339802 0,0.674606 -0.1249271,1.034397 C 9.1377531,2.35421 8.9678522,2.649038 8.7519781,2.913884 8.5346049,3.173732 8.2647623,3.388607 7.9594404,3.543516 Z"></path>
      </g>
    </symbol>
    <symbol role="button" version="1.1" id="map-icon" xmlns="http://www.w3.org/2000/svg" xmlns:xlink="http://www.w3.org/1999/xlink" viewBox="0 0 32 32" enable-background="new 0 0 32 32" xml:space="preserve" fill="none" stroke="currentColor">
      <g stroke-width="0"></g>
      <g stroke-linecap="round" stroke-linejoin="round"></g>
      <g>
        <g>
          <path fill="currentColor" d="M0.943,28.222l9.371,3.742C10.375,31.989,10.438,32,10.5,32c0.062,0,0.126-0.012,0.186-0.036l9.823-3.923 l9.48,3.441c0.166,0.061,0.339,0.09,0.512,0.09c0.304,0,0.604-0.092,0.86-0.271c0.4-0.28,0.64-0.74,0.64-1.229V9.194 c0-0.629-0.397-1.195-0.988-1.41l-5.997-2.177c-0.262-0.091-0.547,0.04-0.641,0.3c-0.095,0.259,0.039,0.546,0.299,0.641 l5.997,2.177C30.867,8.796,31,8.985,31,9.194v20.879c0,0.165-0.078,0.314-0.213,0.41c-0.138,0.095-0.303,0.117-0.457,0.06 L21,27.156V19c0-0.276-0.224-0.5-0.5-0.5S20,18.724,20,19v8.167l-9,3.594V20c0-0.276-0.224-0.5-0.5-0.5S10,19.724,10,20v10.762 l-8.686-3.468C1.123,27.217,1,27.035,1,26.829V5.976c0-0.168,0.08-0.319,0.22-0.414c0.14-0.094,0.309-0.113,0.466-0.05l3.24,1.294 c0.255,0.104,0.547-0.023,0.649-0.279c0.103-0.256-0.022-0.547-0.278-0.65l-3.24-1.294C1.593,4.397,1.071,4.456,0.658,4.734 C0.246,5.014,0,5.478,0,5.976v20.853C0,27.446,0.37,27.993,0.943,28.222z"></path>
          <path fill="currentColor" d="M14.057,22.467C14.287,22.801,14.668,23,15.074,23c0.409,0,0.791-0.202,1.019-0.536l3.696-5.308L21.863,14 c1.475-1.868,2.104-4.207,1.771-6.586c-0.534-3.829-3.722-6.923-7.58-7.358C10.821-0.524,6.373,3.55,6.373,8.651 c0,1.997,0.648,3.77,2.096,5.738L14.057,22.467z M15.047,1c0.295,0,0.594,0.017,0.896,0.051c3.41,0.384,6.229,3.119,6.701,6.502 c0.294,2.106-0.263,4.176-1.592,5.862l-2.092,3.18l-3.691,5.301c-0.123,0.18-0.268,0.179-0.391,0.001l-5.596-8.089 c-1.321-1.797-1.91-3.388-1.91-5.158C7.373,4.432,10.815,1,15.047,1z"></path>
          <path fill="currentColor" d="M15.002,11.651c1.654,0,3-1.346,3-3s-1.346-3-3-3s-3,1.346-3,3S13.348,11.651,15.002,11.651z M15.002,6.651 c1.103,0,2,0.897,2,2s-0.897,2-2,2s-2-0.897-2-2S13.899,6.651,15.002,6.651z"></path>
        </g>
      </g>
    </symbol>
    <symbol role="button" id="closeX" viewBox="0 0 24 24" fill="none" xmlns="http://www.w3.org/2000/svg">
      <g stroke-width="0"></g>
      <g stroke-linecap="round" stroke-linejoin="round"></g>
      <g>
        <circle cx="12" cy="12" r="10" stroke="#1C274C" stroke-width="1.5"></circle>
        <path d="M14.5 9.50002L9.5 14.5M9.49998 9.5L14.5 14.5" stroke="#1C274C" stroke-width="1.5" stroke-linecap="round"></path>
      </g>
    </symbol>

</svg>
