<svg xmlns="http://www.w3.org/2000/svg" viewBox="0 0 54 54" height="54" width="54">
  <title>mobile-phone.svg</title>
  <rect fill="none" x="0" y="0" width="54" height="54"></rect>
  <path fill="#ff0000" stroke="white" transform="translate(6 10) scale(3)" d="M7.5,0C5.0676,0,2.2297,1.4865,2.2297,5.2703
	C2.2297,7.8378,6.2838,13.5135,7.5,15c1.0811-1.4865,5.2703-7.027,5.2703-9.7297C12.7703,1.4865,9.9324,0,7.5,0z"></path>
  <path fill="#ffffff" transform="translate(17 15) scale(1.5)" d="M10,2h0V1.5a.5.5,0,0,0-1,0V2H5A1,1,0,0,0,4,3V13a1,1,0,0,0,1,1h5a1,1,0,0,0,1-1V3A1,1,0,0,0,10,2ZM6,13H5V12H6Zm0-2H5V10H6ZM6,9H5V8H6Zm2,4H7V12H8Zm0-2H7V10H8ZM8,9H7V8H8Zm2,4H9V12h1Zm0-2H9V10h1Zm0-2H9V8h1Zm0-2.5a.5.5,0,0,1-.5.5h-4A.5.5,0,0,1,5,6.5v-3A.5.5,0,0,1,5.5,3h4a.5.5,0,0,1,.5.5Z"></path>
</svg>
