<svg xmlns="http://www.w3.org/2000/svg" viewBox="0 0 54 54" height="54" width="54">
	<title>mural.svg</title>
	<rect fill="none" x="0" y="0" width="54" height="54"></rect>
	<path fill="#40add6" stroke="white" transform="translate(6 10) scale(3)" d="M7.5,0C5.0676,0,2.2297,1.4865,2.2297,5.2703
	C2.2297,7.8378,6.2838,13.5135,7.5,15c1.0811-1.4865,5.2703-7.027,5.2703-9.7297C12.7703,1.4865,9.9324,0,7.5,0z"></path>
	<path fill="#ffffff" transform="translate(18 15) scale(1.4)" d="M10.71,4L7.85,1.15C7.6555,0.9539,7.339,0.9526,7.1429,1.1471C7.1419,1.1481,7.141,1.149,7.14,1.15L4.29,4H1.5
	C1.2239,4,1,4.2239,1,4.5v9C1,13.7761,1.2239,14,1.5,14h12c0.2761,0,0.5-0.2239,0.5-0.5v-9C14,4.2239,13.7761,4,13.5,4H10.71z
	 M7.5,2.21L9.29,4H5.71L7.5,2.21z M13,13H2V5h11V13z M5,8C4.4477,8,4,7.5523,4,7s0.4477-1,1-1s1,0.4477,1,1S5.5523,8,5,8z M12,12
	H4.5L6,9l1.25,2.5L9.5,7L12,12z"></path>
</svg>
