<svg xmlns="http://www.w3.org/2000/svg" viewBox="0 0 54 54" height="54" width="54">
	<title>picnic-site.svg</title>
	<rect fill="none" x="0" y="0" width="54" height="54"></rect>
  <path fill="#40add6" stroke="white" transform="translate(6 10) scale(3)" d="M7.5,0C5.0676,0,2.2297,1.4865,2.2297,5.2703
	C2.2297,7.8378,6.2838,13.5135,7.5,15c1.0811-1.4865,5.2703-7.027,5.2703-9.7297C12.7703,1.4865,9.9324,0,7.5,0z"></path>
	<path fill="#ffffff" transform="translate(17 15) scale(1.5)" d="M4,3C3.446,3,3,3.446,3,4s0.446,1,1,1h1.2969
	L4.6523,7H2.5c-0.554,0-1,0.446-1,1s0.446,1,1,1h1.5098L3.041,12.0098c-0.1284,0.3939,0.0868,0.8173,0.4807,0.9457
	s0.8173-0.0868,0.9457-0.4807c0.0005-0.0013,0.0009-0.0027,0.0013-0.004L5.5859,9h3.8281l1.1172,3.4707
	c0.1273,0.3943,0.5501,0.6107,0.9443,0.4834s0.6107-0.5501,0.4834-0.9443l0,0L10.9902,9H12.5c0.554,0,1-0.446,1-1s-0.446-1-1-1
	h-2.1523L9.7031,5H11c0.554,0,1-0.446,1-1s-0.446-1-1-1H4z M6.873,5H8.127l0.6445,2h-2.543L6.873,5z"></path></svg>
