<svg xmlns="http://www.w3.org/2000/svg" viewBox="0 0 54 54" height="54" width="54">
  <title>school.svg</title>
  <rect fill="none" x="0" y="0" width="54" height="54"></rect>
  <path fill="#ffa500" stroke="white" transform="translate(6 10) scale(3)" d="M7.5,0C5.0676,0,2.2297,1.4865,2.2297,5.2703
	C2.2297,7.8378,6.2838,13.5135,7.5,15c1.0811-1.4865,5.2703-7.027,5.2703-9.7297C12.7703,1.4865,9.9324,0,7.5,0z"></path>
  <path fill="#ffffff" transform="translate(17 15) scale(1.5)" d="M11,13v-1h2v-1H9.5v-1H13V9h-2V8h2V7h-2V6h2V5H9.5V4H13V3h-2V2h2V1H8v13h5v-1H11z M6,11H2V1h4V11z M6,12l-2,2l-2-2H6z"></path>
</svg>
