<svg width="54" height="54" xmlns="http://www.w3.org/2000/svg" xmlns:svg="http://www.w3.org/2000/svg">
 <g class="layer">
  <title>Layer 1</title>
  <rect fill="none" height="54" id="svg_1" width="54" x="0" y="0"/>
  <path d="m7.5,0c-2.43,0 -5.27,1.49 -5.27,5.27c0,2.57 4.05,8.24 5.27,9.73c1.08,-1.49 5.27,-7.03 5.27,-9.73c0,-3.78 -2.84,-5.27 -5.27,-5.27z" fill="#40add6" id="svg_2" stroke="white" transform="translate(6 10) scale(3)"/>
  <path d="m691.78,917.82c0,8.71 -7.04,15.75 -15.68,15.75l-318.6,0a15.68,15.68 0 0 1 -15.8,-15.75l0,-798.4c0,-8.64 6.97,-15.68 15.8,-15.68l318.53,0c8.64,0 15.68,7.04 15.68,15.68l0,798.4l0.07,0z" fill="#000000" id="svg_3" transform="matrix(1 0 0 1 0 0) translate(17 15) scale(0.023 0.023)"/>
  <path d="m514.69,267.26m-102.34,0a102.34,102.34 0 1 0 204.67,0a102.34,102.34 0 1 0 -204.67,0z" fill="#D0431F" id="svg_4" transform="translate(17 15) scale(.023)"/>
  <path d="m514.69,518.66m-102.27,0a102.27,102.27 0 1 0 204.54,0a102.27,102.27 0 1 0 -204.54,0z" fill="#E1D250" id="svg_5" transform="translate(17 15) scale(.023)"/>
  <path d="m514.69,769.98m-102.27,0a102.27,102.27 0 1 0 204.54,0a102.27,102.27 0 1 0 -204.54,0z" fill="#6CAA3D" id="svg_6" transform="translate(17 15) scale(.023)"/>
  <path d="m36.99,18.36l-4.07,0l0,4.61l0.13,0l3.94,-3.1l0,-1.51zm0,6.06l-4.07,0l0,4.61l0.13,0l3.94,-3.1l0,-1.51zm0,6.15l-4.07,0l0,4.61l0.13,0l3.94,-3.1l0,-1.51zm-16.2,-12.21l4.08,0l0,4.61l-0.13,0l-3.94,-3.1l0,-1.51zm0,6.06l4.08,0l0,4.61l-0.13,0l-3.94,-3.1l0,-1.51zm0,6.15l4.08,0l0,4.61l-0.13,0l-3.94,-3.1l0,-1.51z" fill="#7f7f7f" id="svg_7" stroke="#000000"/>
 </g>
</svg>
