<svg xmlns="http://www.w3.org/2000/svg" viewBox="0 0 54 54" height="54" width="54">
	<title>waste-basket.svg</title>
	<rect fill="none" x="0" y="0" width="54" height="54"></rect>
	<path fill="#40add6" stroke="white" transform="translate(6 10) scale(3)" d="M7.5,0C5.0676,0,2.2297,1.4865,2.2297,5.2703
	C2.2297,7.8378,6.2838,13.5135,7.5,15c1.0811-1.4865,5.2703-7.027,5.2703-9.7297C12.7703,1.4865,9.9324,0,7.5,0z"></path>
	<path fill="#ffffff" transform="translate(17 15) scale(1.5)" d="M12.41,5.58l-1.34,8c-0.0433,0.2368-0.2493,0.4091-0.49,0.41H4.42c-0.2407-0.0009-0.4467-0.1732-0.49-0.41l-1.34-8
	C2.5458,5.3074,2.731,5.0506,3.0035,5.0064C3.0288,5.0023,3.0544,5.0002,3.08,5h8.83c0.2761-0.0036,0.5028,0.2174,0.5064,0.4935
	C12.4168,5.5225,12.4146,5.5514,12.41,5.58z M13,3.5C13,3.7761,12.7761,4,12.5,4h-10C2.2239,4,2,3.7761,2,3.5S2.2239,3,2.5,3H5V1.5
	C5,1.2239,5.2239,1,5.5,1h4C9.7761,1,10,1.2239,10,1.5V3h2.5C12.7761,3,13,3.2239,13,3.5z M9,3V2H6v1H9z"></path>
</svg>
