<svg xmlns="http://www.w3.org/2000/svg" viewBox="0 0 54 54" height="54" width="54">
  <title>water.svg</title>
  <rect fill="none" x="0" y="0" width="54" height="54"></rect>
  <path fill="#40add6" stroke="white" transform="translate(6 10) scale(3)" d="M7.5,0C5.0676,0,2.2297,1.4865,2.2297,5.2703
	C2.2297,7.8378,6.2838,13.5135,7.5,15c1.0811-1.4865,5.2703-7.027,5.2703-9.7297C12.7703,1.4865,9.9324,0,7.5,0z"></path>
  <path fill="#ffffff" transform="translate(17 15) scale(1.5)" d="M7.49,15C4.5288,14.827,2.1676,12.4615,2,9.5C2,6.6,6.25,1.66,7.49,0c1.24,1.66,5,6.59,5,9.49S10.17,15,7.49,15z"></path>
</svg>
